<mxfile host="Electron" agent="Mozilla/5.0 (Windows NT 10.0; Win64; x64) AppleWebKit/537.36 (KHTML, like Gecko) draw.io/28.0.6 Chrome/138.0.7204.100 Electron/37.2.3 Safari/537.36" version="28.0.6">
  <diagram name="Page-1" id="5JrAJEW3yB9njbnUB3d4">
    <mxGraphModel dx="772" dy="501" grid="1" gridSize="10" guides="1" tooltips="1" connect="1" arrows="1" fold="1" page="1" pageScale="1" pageWidth="827" pageHeight="1169" math="0" shadow="0">
      <root>
        <mxCell id="0" />
        <mxCell id="1" parent="0" />
        <mxCell id="fRufUF-HxF2jrccLI2GY-1" value="Data Flow Diagram" style="text;html=1;align=center;verticalAlign=middle;whiteSpace=wrap;rounded=0;fontSize=17;" parent="1" vertex="1">
          <mxGeometry x="10" y="20" width="150" height="30" as="geometry" />
        </mxCell>
        <mxCell id="fRufUF-HxF2jrccLI2GY-4" value="" style="rounded=0;whiteSpace=wrap;html=1;fillColor=none;strokeColor=#B4B4B4;dashed=1;" parent="1" vertex="1">
          <mxGeometry x="45.31" y="100" width="170" height="460" as="geometry" />
        </mxCell>
        <mxCell id="fRufUF-HxF2jrccLI2GY-5" value="Sources" style="rounded=0;whiteSpace=wrap;html=1;strokeColor=none;fontSize=14;" parent="1" vertex="1">
          <mxGeometry x="81.13000000000001" y="80" width="90" height="30" as="geometry" />
        </mxCell>
        <mxCell id="fRufUF-HxF2jrccLI2GY-6" value="" style="sketch=0;pointerEvents=1;shadow=0;dashed=0;html=1;labelPosition=center;verticalLabelPosition=bottom;verticalAlign=top;outlineConnect=0;align=center;shape=mxgraph.office.concepts.folder;fillColor=#b0e3e6;strokeColor=#0e8088;" parent="1" vertex="1">
          <mxGeometry x="100.62" y="220" width="50" height="45" as="geometry" />
        </mxCell>
        <mxCell id="fRufUF-HxF2jrccLI2GY-7" value="" style="image;aspect=fixed;html=1;points=[];align=center;fontSize=12;image=img/lib/azure2/general/Media_File.svg;" parent="1" vertex="1">
          <mxGeometry x="130.62" y="240" width="32.51" height="40" as="geometry" />
        </mxCell>
        <mxCell id="fRufUF-HxF2jrccLI2GY-8" value="CRM" style="text;html=1;align=center;verticalAlign=middle;whiteSpace=wrap;rounded=0;" parent="1" vertex="1">
          <mxGeometry x="95.62" y="228" width="60" height="30" as="geometry" />
        </mxCell>
        <mxCell id="fRufUF-HxF2jrccLI2GY-9" value="" style="sketch=0;pointerEvents=1;shadow=0;dashed=0;html=1;strokeColor=#0e8088;labelPosition=center;verticalLabelPosition=bottom;verticalAlign=top;outlineConnect=0;align=center;shape=mxgraph.office.concepts.folder;fillColor=#b0e3e6;" parent="1" vertex="1">
          <mxGeometry x="102.49000000000001" y="391.5" width="50" height="45" as="geometry" />
        </mxCell>
        <mxCell id="fRufUF-HxF2jrccLI2GY-10" value="" style="image;aspect=fixed;html=1;points=[];align=center;fontSize=12;image=img/lib/azure2/general/Media_File.svg;" parent="1" vertex="1">
          <mxGeometry x="132.49" y="411.5" width="32.51" height="40" as="geometry" />
        </mxCell>
        <mxCell id="fRufUF-HxF2jrccLI2GY-11" value="ERP" style="text;html=1;align=center;verticalAlign=middle;whiteSpace=wrap;rounded=0;" parent="1" vertex="1">
          <mxGeometry x="97.49000000000001" y="448.5" width="60" height="30" as="geometry" />
        </mxCell>
        <mxCell id="fRufUF-HxF2jrccLI2GY-13" value="Bronze Layer" style="rounded=1;whiteSpace=wrap;html=1;fillColor=#ffe6cc;strokeColor=#d79b00;fontSize=14;fontStyle=1" parent="1" vertex="1">
          <mxGeometry x="270" y="99" width="198" height="30" as="geometry" />
        </mxCell>
        <mxCell id="fRufUF-HxF2jrccLI2GY-14" value="" style="rounded=1;whiteSpace=wrap;html=1;fillColor=none;strokeColor=#d79b00;fontSize=14;" parent="1" vertex="1">
          <mxGeometry x="271" y="139" width="199.5" height="421" as="geometry" />
        </mxCell>
        <mxCell id="fRufUF-HxF2jrccLI2GY-22" value="&lt;span style=&quot;font-weight: normal;&quot;&gt;crm_sales_details&lt;/span&gt;" style="rounded=1;whiteSpace=wrap;html=1;fillColor=#ffe6cc;strokeColor=#d79b00;fontSize=14;fontStyle=1" parent="1" vertex="1">
          <mxGeometry x="290.5" y="280" width="160.5" height="30" as="geometry" />
        </mxCell>
        <mxCell id="o9ks7IWOrEU3gT6vzCzk-9" style="edgeStyle=orthogonalEdgeStyle;rounded=0;orthogonalLoop=1;jettySize=auto;html=1;" parent="1" source="fRufUF-HxF2jrccLI2GY-23" target="o9ks7IWOrEU3gT6vzCzk-4" edge="1">
          <mxGeometry relative="1" as="geometry" />
        </mxCell>
        <mxCell id="fRufUF-HxF2jrccLI2GY-23" value="&lt;span style=&quot;font-weight: normal;&quot;&gt;crm_cust_info&lt;/span&gt;" style="rounded=1;whiteSpace=wrap;html=1;fillColor=#ffe6cc;strokeColor=#d79b00;fontSize=14;fontStyle=1" parent="1" vertex="1">
          <mxGeometry x="288.75" y="170" width="160.5" height="30" as="geometry" />
        </mxCell>
        <mxCell id="fRufUF-HxF2jrccLI2GY-24" value="&lt;span style=&quot;font-weight: normal;&quot;&gt;crm_prod_info&lt;/span&gt;" style="rounded=1;whiteSpace=wrap;html=1;fillColor=#ffe6cc;strokeColor=#d79b00;fontSize=14;fontStyle=1" parent="1" vertex="1">
          <mxGeometry x="290.5" y="228" width="160.5" height="30" as="geometry" />
        </mxCell>
        <mxCell id="fRufUF-HxF2jrccLI2GY-25" value="&lt;span style=&quot;font-weight: normal;&quot;&gt;erp_cust_az12&lt;/span&gt;" style="rounded=1;whiteSpace=wrap;html=1;fillColor=#ffe6cc;strokeColor=#d79b00;fontSize=14;fontStyle=1" parent="1" vertex="1">
          <mxGeometry x="290.5" y="334.5" width="160.5" height="30" as="geometry" />
        </mxCell>
        <mxCell id="fRufUF-HxF2jrccLI2GY-26" value="&lt;span style=&quot;font-weight: normal;&quot;&gt;erp_loc_a101&lt;/span&gt;" style="rounded=1;whiteSpace=wrap;html=1;fillColor=#ffe6cc;strokeColor=#d79b00;fontSize=14;fontStyle=1" parent="1" vertex="1">
          <mxGeometry x="290.5" y="391.5" width="160.5" height="30" as="geometry" />
        </mxCell>
        <mxCell id="o9ks7IWOrEU3gT6vzCzk-14" style="edgeStyle=orthogonalEdgeStyle;rounded=0;orthogonalLoop=1;jettySize=auto;html=1;entryX=0;entryY=0.5;entryDx=0;entryDy=0;" parent="1" source="fRufUF-HxF2jrccLI2GY-27" target="o9ks7IWOrEU3gT6vzCzk-8" edge="1">
          <mxGeometry relative="1" as="geometry" />
        </mxCell>
        <mxCell id="fRufUF-HxF2jrccLI2GY-27" value="&lt;span style=&quot;font-weight: normal;&quot;&gt;erp_px_cat_g1v2&lt;/span&gt;" style="rounded=1;whiteSpace=wrap;html=1;fillColor=#ffe6cc;strokeColor=#d79b00;fontSize=14;fontStyle=1" parent="1" vertex="1">
          <mxGeometry x="290.5" y="451.5" width="160.5" height="30" as="geometry" />
        </mxCell>
        <mxCell id="fRufUF-HxF2jrccLI2GY-28" value="" style="endArrow=classic;html=1;rounded=0;entryX=0;entryY=0.5;entryDx=0;entryDy=0;" parent="1" target="fRufUF-HxF2jrccLI2GY-23" edge="1">
          <mxGeometry width="50" height="50" relative="1" as="geometry">
            <mxPoint x="150.62" y="240" as="sourcePoint" />
            <mxPoint x="200.62" y="190" as="targetPoint" />
          </mxGeometry>
        </mxCell>
        <mxCell id="fRufUF-HxF2jrccLI2GY-29" value="" style="endArrow=classic;html=1;rounded=0;entryX=0;entryY=0.5;entryDx=0;entryDy=0;" parent="1" target="fRufUF-HxF2jrccLI2GY-22" edge="1">
          <mxGeometry width="50" height="50" relative="1" as="geometry">
            <mxPoint x="150.62" y="240" as="sourcePoint" />
            <mxPoint x="289" y="185" as="targetPoint" />
          </mxGeometry>
        </mxCell>
        <mxCell id="fRufUF-HxF2jrccLI2GY-30" value="" style="endArrow=classic;html=1;rounded=0;entryX=0;entryY=0.5;entryDx=0;entryDy=0;" parent="1" target="fRufUF-HxF2jrccLI2GY-24" edge="1">
          <mxGeometry width="50" height="50" relative="1" as="geometry">
            <mxPoint x="148.37" y="240" as="sourcePoint" />
            <mxPoint x="288.75" y="295" as="targetPoint" />
          </mxGeometry>
        </mxCell>
        <mxCell id="fRufUF-HxF2jrccLI2GY-31" value="" style="endArrow=classic;html=1;rounded=0;entryX=0;entryY=0.5;entryDx=0;entryDy=0;" parent="1" target="fRufUF-HxF2jrccLI2GY-25" edge="1">
          <mxGeometry width="50" height="50" relative="1" as="geometry">
            <mxPoint x="150.12" y="414" as="sourcePoint" />
            <mxPoint x="288.5" y="359" as="targetPoint" />
          </mxGeometry>
        </mxCell>
        <mxCell id="fRufUF-HxF2jrccLI2GY-32" value="" style="endArrow=classic;html=1;rounded=0;entryX=0;entryY=0.5;entryDx=0;entryDy=0;" parent="1" edge="1">
          <mxGeometry width="50" height="50" relative="1" as="geometry">
            <mxPoint x="150.12" y="414" as="sourcePoint" />
            <mxPoint x="290.5" y="469" as="targetPoint" />
          </mxGeometry>
        </mxCell>
        <mxCell id="fRufUF-HxF2jrccLI2GY-33" value="" style="endArrow=classic;html=1;rounded=0;entryX=0;entryY=0.5;entryDx=0;entryDy=0;" parent="1" target="fRufUF-HxF2jrccLI2GY-26" edge="1">
          <mxGeometry width="50" height="50" relative="1" as="geometry">
            <mxPoint x="147.87" y="414" as="sourcePoint" />
            <mxPoint x="290.5" y="417" as="targetPoint" />
          </mxGeometry>
        </mxCell>
        <mxCell id="o9ks7IWOrEU3gT6vzCzk-1" value="Silver Layer" style="rounded=1;whiteSpace=wrap;html=1;fillColor=#f5f5f5;strokeColor=#666666;fontSize=14;fontStyle=1;fontColor=#333333;" parent="1" vertex="1">
          <mxGeometry x="520" y="99" width="198" height="30" as="geometry" />
        </mxCell>
        <mxCell id="o9ks7IWOrEU3gT6vzCzk-2" value="" style="rounded=1;whiteSpace=wrap;html=1;fillColor=none;strokeColor=#666666;fontSize=14;fontColor=#333333;" parent="1" vertex="1">
          <mxGeometry x="521" y="139" width="199.5" height="421" as="geometry" />
        </mxCell>
        <mxCell id="o9ks7IWOrEU3gT6vzCzk-3" value="&lt;span style=&quot;font-weight: normal;&quot;&gt;crm_sales_details&lt;/span&gt;" style="rounded=1;whiteSpace=wrap;html=1;fillColor=#f5f5f5;strokeColor=#666666;fontSize=14;fontStyle=1;fontColor=#333333;" parent="1" vertex="1">
          <mxGeometry x="540.5" y="280" width="160.5" height="30" as="geometry" />
        </mxCell>
        <mxCell id="o9ks7IWOrEU3gT6vzCzk-4" value="&lt;span style=&quot;font-weight: normal;&quot;&gt;crm_cust_info&lt;/span&gt;" style="rounded=1;whiteSpace=wrap;html=1;fillColor=#f5f5f5;strokeColor=#666666;fontSize=14;fontStyle=1;fontColor=#333333;" parent="1" vertex="1">
          <mxGeometry x="538.75" y="170" width="160.5" height="29" as="geometry" />
        </mxCell>
        <mxCell id="o9ks7IWOrEU3gT6vzCzk-5" value="&lt;span style=&quot;font-weight: normal;&quot;&gt;crm_prod_info&lt;/span&gt;" style="rounded=1;whiteSpace=wrap;html=1;fillColor=#f5f5f5;strokeColor=#666666;fontSize=14;fontStyle=1;fontColor=#333333;" parent="1" vertex="1">
          <mxGeometry x="540.5" y="228" width="160.5" height="30" as="geometry" />
        </mxCell>
        <mxCell id="o9ks7IWOrEU3gT6vzCzk-6" value="&lt;span style=&quot;font-weight: normal;&quot;&gt;erp_cust_az12&lt;/span&gt;" style="rounded=1;whiteSpace=wrap;html=1;fillColor=#f5f5f5;strokeColor=#666666;fontSize=14;fontStyle=1;fontColor=#333333;" parent="1" vertex="1">
          <mxGeometry x="540.5" y="334.5" width="160.5" height="30" as="geometry" />
        </mxCell>
        <mxCell id="o9ks7IWOrEU3gT6vzCzk-7" value="&lt;span style=&quot;font-weight: normal;&quot;&gt;erp_loc_a101&lt;/span&gt;" style="rounded=1;whiteSpace=wrap;html=1;fillColor=#f5f5f5;strokeColor=#666666;fontSize=14;fontStyle=1;fontColor=#333333;" parent="1" vertex="1">
          <mxGeometry x="540.5" y="391.5" width="160.5" height="30" as="geometry" />
        </mxCell>
        <mxCell id="o9ks7IWOrEU3gT6vzCzk-8" value="&lt;span style=&quot;font-weight: normal;&quot;&gt;erp_px_cat_g1v2&lt;/span&gt;" style="rounded=1;whiteSpace=wrap;html=1;fillColor=#f5f5f5;strokeColor=#666666;fontSize=14;fontStyle=1;fontColor=#333333;" parent="1" vertex="1">
          <mxGeometry x="540.5" y="451.5" width="160.5" height="30" as="geometry" />
        </mxCell>
        <mxCell id="o9ks7IWOrEU3gT6vzCzk-10" style="edgeStyle=orthogonalEdgeStyle;rounded=0;orthogonalLoop=1;jettySize=auto;html=1;" parent="1" source="fRufUF-HxF2jrccLI2GY-24" edge="1">
          <mxGeometry relative="1" as="geometry">
            <mxPoint x="540" y="243" as="targetPoint" />
          </mxGeometry>
        </mxCell>
        <mxCell id="o9ks7IWOrEU3gT6vzCzk-11" style="edgeStyle=orthogonalEdgeStyle;rounded=0;orthogonalLoop=1;jettySize=auto;html=1;exitX=1;exitY=0.5;exitDx=0;exitDy=0;" parent="1" source="fRufUF-HxF2jrccLI2GY-22" edge="1">
          <mxGeometry relative="1" as="geometry">
            <mxPoint x="540" y="295" as="targetPoint" />
          </mxGeometry>
        </mxCell>
        <mxCell id="o9ks7IWOrEU3gT6vzCzk-12" style="edgeStyle=orthogonalEdgeStyle;rounded=0;orthogonalLoop=1;jettySize=auto;html=1;entryX=0.095;entryY=0.498;entryDx=0;entryDy=0;entryPerimeter=0;" parent="1" source="fRufUF-HxF2jrccLI2GY-25" target="o9ks7IWOrEU3gT6vzCzk-2" edge="1">
          <mxGeometry relative="1" as="geometry" />
        </mxCell>
        <mxCell id="o9ks7IWOrEU3gT6vzCzk-13" style="edgeStyle=orthogonalEdgeStyle;rounded=0;orthogonalLoop=1;jettySize=auto;html=1;entryX=0;entryY=0.5;entryDx=0;entryDy=0;" parent="1" source="fRufUF-HxF2jrccLI2GY-26" target="o9ks7IWOrEU3gT6vzCzk-7" edge="1">
          <mxGeometry relative="1" as="geometry">
            <mxPoint x="540" y="407" as="targetPoint" />
          </mxGeometry>
        </mxCell>
        <mxCell id="wy4Rn6NV8nRbWULo4h8C-1" value="Gold Layer" style="rounded=1;whiteSpace=wrap;html=1;fillColor=#fff2cc;strokeColor=#d6b656;fontSize=14;fontStyle=1;" vertex="1" parent="1">
          <mxGeometry x="790" y="100" width="198" height="30" as="geometry" />
        </mxCell>
        <mxCell id="wy4Rn6NV8nRbWULo4h8C-2" value="" style="rounded=1;whiteSpace=wrap;html=1;fillColor=none;strokeColor=#d6b656;fontSize=14;" vertex="1" parent="1">
          <mxGeometry x="791" y="140" width="199.5" height="421" as="geometry" />
        </mxCell>
        <mxCell id="wy4Rn6NV8nRbWULo4h8C-3" value="&lt;span style=&quot;font-weight: normal;&quot;&gt;dim_products&lt;/span&gt;" style="rounded=1;whiteSpace=wrap;html=1;fillColor=#fff2cc;strokeColor=#d6b656;fontSize=14;fontStyle=1;" vertex="1" parent="1">
          <mxGeometry x="821.75" y="370" width="160.5" height="30" as="geometry" />
        </mxCell>
        <mxCell id="wy4Rn6NV8nRbWULo4h8C-4" value="&lt;span style=&quot;font-weight: normal;&quot;&gt;fact_sales&lt;/span&gt;" style="rounded=1;whiteSpace=wrap;html=1;fillColor=#fff2cc;strokeColor=#d6b656;fontSize=14;fontStyle=1;" vertex="1" parent="1">
          <mxGeometry x="821.75" y="199" width="160.5" height="29" as="geometry" />
        </mxCell>
        <mxCell id="wy4Rn6NV8nRbWULo4h8C-5" value="&lt;span style=&quot;font-weight: normal;&quot;&gt;dim_customers&lt;/span&gt;" style="rounded=1;whiteSpace=wrap;html=1;fillColor=#fff2cc;strokeColor=#d6b656;fontSize=14;fontStyle=1;" vertex="1" parent="1">
          <mxGeometry x="821.75" y="290" width="160.5" height="30" as="geometry" />
        </mxCell>
        <mxCell id="wy4Rn6NV8nRbWULo4h8C-10" value="" style="endArrow=classic;html=1;rounded=0;exitX=1;exitY=0.5;exitDx=0;exitDy=0;entryX=0;entryY=0.5;entryDx=0;entryDy=0;jumpStyle=gap;" edge="1" parent="1" source="o9ks7IWOrEU3gT6vzCzk-3" target="wy4Rn6NV8nRbWULo4h8C-4">
          <mxGeometry width="50" height="50" relative="1" as="geometry">
            <mxPoint x="610" y="350" as="sourcePoint" />
            <mxPoint x="660" y="300" as="targetPoint" />
          </mxGeometry>
        </mxCell>
        <mxCell id="wy4Rn6NV8nRbWULo4h8C-11" value="" style="endArrow=classic;html=1;rounded=0;exitX=1;exitY=0.5;exitDx=0;exitDy=0;entryX=0;entryY=0.5;entryDx=0;entryDy=0;jumpStyle=gap;" edge="1" parent="1" source="o9ks7IWOrEU3gT6vzCzk-4" target="wy4Rn6NV8nRbWULo4h8C-5">
          <mxGeometry width="50" height="50" relative="1" as="geometry">
            <mxPoint x="770" y="239" as="sourcePoint" />
            <mxPoint x="889" y="230" as="targetPoint" />
          </mxGeometry>
        </mxCell>
        <mxCell id="wy4Rn6NV8nRbWULo4h8C-12" value="" style="endArrow=classic;html=1;rounded=0;exitX=1;exitY=0.5;exitDx=0;exitDy=0;entryX=0;entryY=0.5;entryDx=0;entryDy=0;jumpStyle=gap;" edge="1" parent="1" source="o9ks7IWOrEU3gT6vzCzk-5" target="wy4Rn6NV8nRbWULo4h8C-3">
          <mxGeometry width="50" height="50" relative="1" as="geometry">
            <mxPoint x="710" y="269" as="sourcePoint" />
            <mxPoint x="829" y="260" as="targetPoint" />
          </mxGeometry>
        </mxCell>
        <mxCell id="wy4Rn6NV8nRbWULo4h8C-13" value="" style="endArrow=classic;html=1;rounded=0;entryX=0;entryY=0.5;entryDx=0;entryDy=0;exitX=1;exitY=0.5;exitDx=0;exitDy=0;jumpStyle=gap;" edge="1" parent="1" source="o9ks7IWOrEU3gT6vzCzk-6" target="wy4Rn6NV8nRbWULo4h8C-5">
          <mxGeometry width="50" height="50" relative="1" as="geometry">
            <mxPoint x="720" y="379" as="sourcePoint" />
            <mxPoint x="839" y="370" as="targetPoint" />
          </mxGeometry>
        </mxCell>
        <mxCell id="wy4Rn6NV8nRbWULo4h8C-14" value="" style="endArrow=classic;html=1;rounded=0;exitX=1;exitY=0.5;exitDx=0;exitDy=0;entryX=0;entryY=0.5;entryDx=0;entryDy=0;jumpStyle=gap;" edge="1" parent="1" source="o9ks7IWOrEU3gT6vzCzk-7" target="wy4Rn6NV8nRbWULo4h8C-5">
          <mxGeometry width="50" height="50" relative="1" as="geometry">
            <mxPoint x="701" y="411" as="sourcePoint" />
            <mxPoint x="820" y="402" as="targetPoint" />
          </mxGeometry>
        </mxCell>
        <mxCell id="wy4Rn6NV8nRbWULo4h8C-15" value="" style="endArrow=classic;html=1;rounded=0;exitX=1;exitY=0.5;exitDx=0;exitDy=0;entryX=0;entryY=0.5;entryDx=0;entryDy=0;jumpStyle=gap;" edge="1" parent="1" source="o9ks7IWOrEU3gT6vzCzk-8" target="wy4Rn6NV8nRbWULo4h8C-3">
          <mxGeometry width="50" height="50" relative="1" as="geometry">
            <mxPoint x="740" y="469" as="sourcePoint" />
            <mxPoint x="859" y="460" as="targetPoint" />
          </mxGeometry>
        </mxCell>
      </root>
    </mxGraphModel>
  </diagram>
</mxfile>
